<mxfile host="app.diagrams.net" modified="2020-11-11T12:08:55.405Z" agent="5.0 (Macintosh; Intel Mac OS X 10_15_7) AppleWebKit/605.1.15 (KHTML, like Gecko) Version/14.0 Safari/605.1.15" etag="h8Lvc92KFg7b_YNDSPm-" version="13.8.4" type="github">
  <diagram id="22n-e2GXgNIFTVIb-eGi" name="Страница 1">
    <mxGraphModel dx="946" dy="662" grid="1" gridSize="10" guides="1" tooltips="1" connect="1" arrows="1" fold="1" page="1" pageScale="1" pageWidth="1100" pageHeight="850" math="0" shadow="0">
      <root>
        <mxCell id="0" />
        <mxCell id="1" parent="0" />
        <mxCell id="wnNiQgYEwYsbPakoSUSL-6" style="edgeStyle=orthogonalEdgeStyle;rounded=0;orthogonalLoop=1;jettySize=auto;html=1;exitX=1;exitY=0.5;exitDx=0;exitDy=0;entryX=0;entryY=0.5;entryDx=0;entryDy=0;" edge="1" parent="1" source="wnNiQgYEwYsbPakoSUSL-1" target="wnNiQgYEwYsbPakoSUSL-2">
          <mxGeometry relative="1" as="geometry" />
        </mxCell>
        <mxCell id="wnNiQgYEwYsbPakoSUSL-1" value="" style="ellipse;fillColor=#000000;strokeColor=none;" vertex="1" parent="1">
          <mxGeometry x="80" y="200" width="40" height="40" as="geometry" />
        </mxCell>
        <mxCell id="wnNiQgYEwYsbPakoSUSL-5" style="edgeStyle=orthogonalEdgeStyle;rounded=0;orthogonalLoop=1;jettySize=auto;html=1;exitX=1;exitY=0.5;exitDx=0;exitDy=0;" edge="1" parent="1" source="wnNiQgYEwYsbPakoSUSL-2" target="wnNiQgYEwYsbPakoSUSL-3">
          <mxGeometry relative="1" as="geometry" />
        </mxCell>
        <mxCell id="wnNiQgYEwYsbPakoSUSL-2" value="Просмотр главной странички" style="rounded=1;whiteSpace=wrap;html=1;" vertex="1" parent="1">
          <mxGeometry x="160" y="190" width="120" height="60" as="geometry" />
        </mxCell>
        <mxCell id="wnNiQgYEwYsbPakoSUSL-7" value="" style="edgeStyle=orthogonalEdgeStyle;rounded=0;orthogonalLoop=1;jettySize=auto;html=1;" edge="1" parent="1" source="wnNiQgYEwYsbPakoSUSL-3" target="wnNiQgYEwYsbPakoSUSL-4">
          <mxGeometry relative="1" as="geometry" />
        </mxCell>
        <mxCell id="wnNiQgYEwYsbPakoSUSL-14" value="Да" style="edgeLabel;html=1;align=center;verticalAlign=middle;resizable=0;points=[];" vertex="1" connectable="0" parent="wnNiQgYEwYsbPakoSUSL-7">
          <mxGeometry x="-0.1646" relative="1" as="geometry">
            <mxPoint as="offset" />
          </mxGeometry>
        </mxCell>
        <mxCell id="wnNiQgYEwYsbPakoSUSL-16" value="" style="edgeStyle=orthogonalEdgeStyle;rounded=0;orthogonalLoop=1;jettySize=auto;html=1;" edge="1" parent="1" source="wnNiQgYEwYsbPakoSUSL-3" target="wnNiQgYEwYsbPakoSUSL-15">
          <mxGeometry relative="1" as="geometry" />
        </mxCell>
        <mxCell id="wnNiQgYEwYsbPakoSUSL-17" value="Нет" style="edgeLabel;html=1;align=center;verticalAlign=middle;resizable=0;points=[];" vertex="1" connectable="0" parent="wnNiQgYEwYsbPakoSUSL-16">
          <mxGeometry x="-0.0824" relative="1" as="geometry">
            <mxPoint as="offset" />
          </mxGeometry>
        </mxCell>
        <mxCell id="wnNiQgYEwYsbPakoSUSL-3" value="&lt;font style=&quot;font-size: 10px&quot;&gt;Заинтересованы &lt;br&gt;ли&amp;nbsp;в &lt;br&gt;дальнейшем &lt;br&gt;просмотре сайта&lt;/font&gt;" style="html=1;whiteSpace=wrap;aspect=fixed;shape=isoRectangle;" vertex="1" parent="1">
          <mxGeometry x="330" y="165" width="183.33" height="110" as="geometry" />
        </mxCell>
        <mxCell id="wnNiQgYEwYsbPakoSUSL-28" value="" style="edgeStyle=orthogonalEdgeStyle;rounded=0;orthogonalLoop=1;jettySize=auto;html=1;startArrow=none;startFill=0;endArrow=classic;endFill=1;" edge="1" parent="1" source="wnNiQgYEwYsbPakoSUSL-4" target="wnNiQgYEwYsbPakoSUSL-8">
          <mxGeometry relative="1" as="geometry" />
        </mxCell>
        <mxCell id="wnNiQgYEwYsbPakoSUSL-4" value="Просмотр онлайн галереи-музея" style="rounded=1;whiteSpace=wrap;html=1;" vertex="1" parent="1">
          <mxGeometry x="560" y="190" width="120" height="60" as="geometry" />
        </mxCell>
        <mxCell id="wnNiQgYEwYsbPakoSUSL-29" value="" style="edgeStyle=orthogonalEdgeStyle;rounded=0;orthogonalLoop=1;jettySize=auto;html=1;startArrow=none;startFill=0;endArrow=classic;endFill=1;" edge="1" parent="1" source="wnNiQgYEwYsbPakoSUSL-8" target="wnNiQgYEwYsbPakoSUSL-9">
          <mxGeometry relative="1" as="geometry" />
        </mxCell>
        <mxCell id="wnNiQgYEwYsbPakoSUSL-8" value="Просмотр &lt;br&gt;действующих экскурсоводов" style="rounded=1;whiteSpace=wrap;html=1;" vertex="1" parent="1">
          <mxGeometry x="710" y="190" width="120" height="60" as="geometry" />
        </mxCell>
        <mxCell id="wnNiQgYEwYsbPakoSUSL-12" value="" style="edgeStyle=orthogonalEdgeStyle;rounded=0;orthogonalLoop=1;jettySize=auto;html=1;" edge="1" parent="1" source="wnNiQgYEwYsbPakoSUSL-9" target="wnNiQgYEwYsbPakoSUSL-11">
          <mxGeometry relative="1" as="geometry" />
        </mxCell>
        <mxCell id="wnNiQgYEwYsbPakoSUSL-19" value="Да" style="edgeLabel;html=1;align=center;verticalAlign=middle;resizable=0;points=[];" vertex="1" connectable="0" parent="wnNiQgYEwYsbPakoSUSL-12">
          <mxGeometry x="-0.0714" y="-1" relative="1" as="geometry">
            <mxPoint as="offset" />
          </mxGeometry>
        </mxCell>
        <mxCell id="wnNiQgYEwYsbPakoSUSL-9" value="&lt;font style=&quot;font-size: 10px&quot;&gt;Заинтересованы &lt;br&gt;ли&amp;nbsp;в &lt;br&gt;посещении музея&lt;br&gt;&lt;/font&gt;" style="html=1;whiteSpace=wrap;aspect=fixed;shape=isoRectangle;" vertex="1" parent="1">
          <mxGeometry x="860" y="165" width="183.33" height="110" as="geometry" />
        </mxCell>
        <mxCell id="wnNiQgYEwYsbPakoSUSL-26" value="" style="edgeStyle=orthogonalEdgeStyle;rounded=0;orthogonalLoop=1;jettySize=auto;html=1;startArrow=none;startFill=0;endArrow=classic;endFill=1;" edge="1" parent="1" source="wnNiQgYEwYsbPakoSUSL-11" target="wnNiQgYEwYsbPakoSUSL-25">
          <mxGeometry relative="1" as="geometry" />
        </mxCell>
        <mxCell id="wnNiQgYEwYsbPakoSUSL-11" value="Переход на страницу&lt;br&gt;оформления билета" style="rounded=1;whiteSpace=wrap;html=1;" vertex="1" parent="1">
          <mxGeometry x="1100" y="190" width="120" height="60" as="geometry" />
        </mxCell>
        <mxCell id="wnNiQgYEwYsbPakoSUSL-22" style="edgeStyle=orthogonalEdgeStyle;rounded=0;orthogonalLoop=1;jettySize=auto;html=1;exitX=1;exitY=0.5;exitDx=0;exitDy=0;startArrow=classic;startFill=1;endArrow=none;endFill=0;" edge="1" parent="1" source="wnNiQgYEwYsbPakoSUSL-15" target="wnNiQgYEwYsbPakoSUSL-9">
          <mxGeometry relative="1" as="geometry">
            <mxPoint x="813" y="160" as="targetPoint" />
          </mxGeometry>
        </mxCell>
        <mxCell id="wnNiQgYEwYsbPakoSUSL-24" value="Нет" style="edgeLabel;html=1;align=center;verticalAlign=middle;resizable=0;points=[];" vertex="1" connectable="0" parent="wnNiQgYEwYsbPakoSUSL-22">
          <mxGeometry x="-0.2662" y="3" relative="1" as="geometry">
            <mxPoint as="offset" />
          </mxGeometry>
        </mxCell>
        <mxCell id="wnNiQgYEwYsbPakoSUSL-15" value="" style="ellipse;html=1;shape=endState;fillColor=#000000;strokeColor=#000000;" vertex="1" parent="1">
          <mxGeometry x="399.99" y="40" width="43.34" height="40" as="geometry" />
        </mxCell>
        <mxCell id="wnNiQgYEwYsbPakoSUSL-21" value="Клиент покидает сайт" style="text;html=1;align=center;verticalAlign=middle;resizable=0;points=[];autosize=1;" vertex="1" parent="1">
          <mxGeometry x="351.66" y="20" width="140" height="20" as="geometry" />
        </mxCell>
        <mxCell id="wnNiQgYEwYsbPakoSUSL-25" value="" style="html=1;points=[];perimeter=orthogonalPerimeter;fillColor=#000000;strokeColor=none;" vertex="1" parent="1">
          <mxGeometry x="1270" y="110" width="5" height="220" as="geometry" />
        </mxCell>
        <mxCell id="wnNiQgYEwYsbPakoSUSL-42" value="" style="edgeStyle=orthogonalEdgeStyle;rounded=0;orthogonalLoop=1;jettySize=auto;html=1;startArrow=none;startFill=0;endArrow=classic;endFill=1;" edge="1" parent="1" source="wnNiQgYEwYsbPakoSUSL-30" target="wnNiQgYEwYsbPakoSUSL-41">
          <mxGeometry relative="1" as="geometry" />
        </mxCell>
        <mxCell id="wnNiQgYEwYsbPakoSUSL-30" value="Выбор экскурсовода" style="rounded=1;whiteSpace=wrap;html=1;" vertex="1" parent="1">
          <mxGeometry x="1350" y="260" width="130" height="35" as="geometry" />
        </mxCell>
        <mxCell id="wnNiQgYEwYsbPakoSUSL-35" value="" style="edgeStyle=orthogonalEdgeStyle;rounded=0;orthogonalLoop=1;jettySize=auto;html=1;startArrow=classic;startFill=1;endArrow=none;endFill=0;" edge="1" parent="1" source="wnNiQgYEwYsbPakoSUSL-32" target="wnNiQgYEwYsbPakoSUSL-25">
          <mxGeometry relative="1" as="geometry" />
        </mxCell>
        <mxCell id="wnNiQgYEwYsbPakoSUSL-48" value="" style="edgeStyle=orthogonalEdgeStyle;rounded=0;orthogonalLoop=1;jettySize=auto;html=1;startArrow=none;startFill=0;endArrow=classic;endFill=1;entryX=-0.6;entryY=0.5;entryDx=0;entryDy=0;entryPerimeter=0;" edge="1" parent="1" source="wnNiQgYEwYsbPakoSUSL-32" target="wnNiQgYEwYsbPakoSUSL-46">
          <mxGeometry relative="1" as="geometry" />
        </mxCell>
        <mxCell id="wnNiQgYEwYsbPakoSUSL-32" value="Выбор даты/времени" style="rounded=1;whiteSpace=wrap;html=1;" vertex="1" parent="1">
          <mxGeometry x="1350" y="202.5" width="130" height="35" as="geometry" />
        </mxCell>
        <mxCell id="wnNiQgYEwYsbPakoSUSL-33" value="Выбор группы" style="rounded=1;whiteSpace=wrap;html=1;" vertex="1" parent="1">
          <mxGeometry x="1350" y="140" width="130" height="35" as="geometry" />
        </mxCell>
        <mxCell id="wnNiQgYEwYsbPakoSUSL-39" value="" style="endArrow=none;html=1;exitX=0;exitY=0.5;exitDx=0;exitDy=0;entryX=1.2;entryY=0.214;entryDx=0;entryDy=0;entryPerimeter=0;startArrow=classic;startFill=1;endFill=0;" edge="1" parent="1" source="wnNiQgYEwYsbPakoSUSL-33" target="wnNiQgYEwYsbPakoSUSL-25">
          <mxGeometry width="50" height="50" relative="1" as="geometry">
            <mxPoint x="1140" y="240" as="sourcePoint" />
            <mxPoint x="1190" y="190" as="targetPoint" />
          </mxGeometry>
        </mxCell>
        <mxCell id="wnNiQgYEwYsbPakoSUSL-40" value="" style="endArrow=none;html=1;exitX=0;exitY=0.5;exitDx=0;exitDy=0;entryX=1.2;entryY=0.214;entryDx=0;entryDy=0;entryPerimeter=0;endFill=0;startArrow=classic;startFill=1;" edge="1" parent="1">
          <mxGeometry width="50" height="50" relative="1" as="geometry">
            <mxPoint x="1350" y="277.5" as="sourcePoint" />
            <mxPoint x="1276" y="277.08000000000004" as="targetPoint" />
            <Array as="points">
              <mxPoint x="1320" y="277" />
            </Array>
          </mxGeometry>
        </mxCell>
        <mxCell id="wnNiQgYEwYsbPakoSUSL-43" style="edgeStyle=orthogonalEdgeStyle;rounded=0;orthogonalLoop=1;jettySize=auto;html=1;exitX=0.5;exitY=1;exitDx=0;exitDy=0;startArrow=none;startFill=0;endArrow=classic;endFill=1;entryX=0.5;entryY=1;entryDx=0;entryDy=0;" edge="1" parent="1" source="wnNiQgYEwYsbPakoSUSL-41" target="wnNiQgYEwYsbPakoSUSL-8">
          <mxGeometry relative="1" as="geometry">
            <mxPoint x="770" y="260" as="targetPoint" />
          </mxGeometry>
        </mxCell>
        <mxCell id="wnNiQgYEwYsbPakoSUSL-44" value="Нет" style="edgeLabel;html=1;align=center;verticalAlign=middle;resizable=0;points=[];" vertex="1" connectable="0" parent="wnNiQgYEwYsbPakoSUSL-43">
          <mxGeometry x="0.2245" y="-3" relative="1" as="geometry">
            <mxPoint as="offset" />
          </mxGeometry>
        </mxCell>
        <mxCell id="wnNiQgYEwYsbPakoSUSL-41" value="Определились&lt;br&gt;с&amp;nbsp;&lt;br&gt;экскурсоводом" style="rhombus;whiteSpace=wrap;html=1;" vertex="1" parent="1">
          <mxGeometry x="1530" y="241.25" width="190" height="72.5" as="geometry" />
        </mxCell>
        <mxCell id="wnNiQgYEwYsbPakoSUSL-52" value="" style="edgeStyle=orthogonalEdgeStyle;rounded=0;orthogonalLoop=1;jettySize=auto;html=1;startArrow=none;startFill=0;endArrow=classic;endFill=1;" edge="1" parent="1" source="wnNiQgYEwYsbPakoSUSL-46" target="wnNiQgYEwYsbPakoSUSL-51">
          <mxGeometry relative="1" as="geometry" />
        </mxCell>
        <mxCell id="wnNiQgYEwYsbPakoSUSL-46" value="" style="html=1;points=[];perimeter=orthogonalPerimeter;fillColor=#000000;strokeColor=none;" vertex="1" parent="1">
          <mxGeometry x="1800" y="110" width="5" height="220" as="geometry" />
        </mxCell>
        <mxCell id="wnNiQgYEwYsbPakoSUSL-47" value="Да" style="endArrow=none;html=1;entryX=1;entryY=0.5;entryDx=0;entryDy=0;endFill=0;startArrow=classic;startFill=1;exitX=0;exitY=0.764;exitDx=0;exitDy=0;exitPerimeter=0;" edge="1" parent="1" source="wnNiQgYEwYsbPakoSUSL-46" target="wnNiQgYEwYsbPakoSUSL-41">
          <mxGeometry width="50" height="50" relative="1" as="geometry">
            <mxPoint x="1780" y="260" as="sourcePoint" />
            <mxPoint x="1286" y="287.08000000000004" as="targetPoint" />
            <Array as="points">
              <mxPoint x="1780" y="278" />
            </Array>
          </mxGeometry>
        </mxCell>
        <mxCell id="wnNiQgYEwYsbPakoSUSL-50" value="" style="endArrow=none;html=1;exitX=-0.2;exitY=0.216;exitDx=0;exitDy=0;entryX=1;entryY=0.5;entryDx=0;entryDy=0;endFill=0;startArrow=classic;startFill=1;exitPerimeter=0;" edge="1" parent="1" source="wnNiQgYEwYsbPakoSUSL-46" target="wnNiQgYEwYsbPakoSUSL-33">
          <mxGeometry width="50" height="50" relative="1" as="geometry">
            <mxPoint x="1360" y="287.5" as="sourcePoint" />
            <mxPoint x="1286" y="287.08000000000004" as="targetPoint" />
            <Array as="points" />
          </mxGeometry>
        </mxCell>
        <mxCell id="wnNiQgYEwYsbPakoSUSL-56" value="" style="edgeStyle=orthogonalEdgeStyle;rounded=0;orthogonalLoop=1;jettySize=auto;html=1;startArrow=none;startFill=0;endArrow=classic;endFill=1;" edge="1" parent="1" source="wnNiQgYEwYsbPakoSUSL-51" target="wnNiQgYEwYsbPakoSUSL-53">
          <mxGeometry relative="1" as="geometry" />
        </mxCell>
        <mxCell id="wnNiQgYEwYsbPakoSUSL-51" value="Оплата заказа" style="rounded=1;whiteSpace=wrap;html=1;" vertex="1" parent="1">
          <mxGeometry x="1860" y="200" width="100" height="40" as="geometry" />
        </mxCell>
        <mxCell id="wnNiQgYEwYsbPakoSUSL-60" value="" style="edgeStyle=orthogonalEdgeStyle;rounded=0;orthogonalLoop=1;jettySize=auto;html=1;startArrow=none;startFill=0;endArrow=classic;endFill=1;" edge="1" parent="1" source="wnNiQgYEwYsbPakoSUSL-53" target="wnNiQgYEwYsbPakoSUSL-59">
          <mxGeometry relative="1" as="geometry" />
        </mxCell>
        <mxCell id="wnNiQgYEwYsbPakoSUSL-72" value="Да" style="edgeLabel;html=1;align=center;verticalAlign=middle;resizable=0;points=[];" vertex="1" connectable="0" parent="wnNiQgYEwYsbPakoSUSL-60">
          <mxGeometry x="-0.0667" y="2" relative="1" as="geometry">
            <mxPoint as="offset" />
          </mxGeometry>
        </mxCell>
        <mxCell id="wnNiQgYEwYsbPakoSUSL-74" value="" style="edgeStyle=orthogonalEdgeStyle;rounded=0;orthogonalLoop=1;jettySize=auto;html=1;startArrow=none;startFill=0;endArrow=classic;endFill=1;" edge="1" parent="1" source="wnNiQgYEwYsbPakoSUSL-53" target="wnNiQgYEwYsbPakoSUSL-73">
          <mxGeometry relative="1" as="geometry" />
        </mxCell>
        <mxCell id="wnNiQgYEwYsbPakoSUSL-75" value="Нет" style="edgeLabel;html=1;align=center;verticalAlign=middle;resizable=0;points=[];" vertex="1" connectable="0" parent="wnNiQgYEwYsbPakoSUSL-74">
          <mxGeometry y="-1" relative="1" as="geometry">
            <mxPoint as="offset" />
          </mxGeometry>
        </mxCell>
        <mxCell id="wnNiQgYEwYsbPakoSUSL-53" value="Проходит ли оплата" style="rhombus;whiteSpace=wrap;html=1;" vertex="1" parent="1">
          <mxGeometry x="2000" y="190" width="140" height="58.75" as="geometry" />
        </mxCell>
        <mxCell id="wnNiQgYEwYsbPakoSUSL-62" value="" style="edgeStyle=orthogonalEdgeStyle;rounded=0;orthogonalLoop=1;jettySize=auto;html=1;startArrow=none;startFill=0;endArrow=classic;endFill=1;entryX=0;entryY=0.5;entryDx=0;entryDy=0;" edge="1" parent="1" source="wnNiQgYEwYsbPakoSUSL-59" target="wnNiQgYEwYsbPakoSUSL-63">
          <mxGeometry relative="1" as="geometry">
            <mxPoint x="2420" y="219.38" as="targetPoint" />
          </mxGeometry>
        </mxCell>
        <mxCell id="wnNiQgYEwYsbPakoSUSL-59" value="Отсылка электронного билета пользователю" style="rounded=1;whiteSpace=wrap;html=1;" vertex="1" parent="1">
          <mxGeometry x="2200" y="184.38" width="120" height="70" as="geometry" />
        </mxCell>
        <mxCell id="wnNiQgYEwYsbPakoSUSL-65" value="" style="edgeStyle=orthogonalEdgeStyle;rounded=0;orthogonalLoop=1;jettySize=auto;html=1;startArrow=none;startFill=0;endArrow=classic;endFill=1;" edge="1" parent="1" source="wnNiQgYEwYsbPakoSUSL-63" target="wnNiQgYEwYsbPakoSUSL-64">
          <mxGeometry relative="1" as="geometry" />
        </mxCell>
        <mxCell id="wnNiQgYEwYsbPakoSUSL-66" value="Нет" style="edgeLabel;html=1;align=center;verticalAlign=middle;resizable=0;points=[];" vertex="1" connectable="0" parent="wnNiQgYEwYsbPakoSUSL-65">
          <mxGeometry x="0.1224" y="-2" relative="1" as="geometry">
            <mxPoint as="offset" />
          </mxGeometry>
        </mxCell>
        <mxCell id="wnNiQgYEwYsbPakoSUSL-69" value="" style="edgeStyle=orthogonalEdgeStyle;rounded=0;orthogonalLoop=1;jettySize=auto;html=1;startArrow=none;startFill=0;endArrow=classic;endFill=1;" edge="1" parent="1" source="wnNiQgYEwYsbPakoSUSL-63" target="wnNiQgYEwYsbPakoSUSL-68">
          <mxGeometry relative="1" as="geometry" />
        </mxCell>
        <mxCell id="wnNiQgYEwYsbPakoSUSL-70" value="Да" style="edgeLabel;html=1;align=center;verticalAlign=middle;resizable=0;points=[];" vertex="1" connectable="0" parent="wnNiQgYEwYsbPakoSUSL-69">
          <mxGeometry x="-0.2" y="1" relative="1" as="geometry">
            <mxPoint as="offset" />
          </mxGeometry>
        </mxCell>
        <mxCell id="wnNiQgYEwYsbPakoSUSL-63" value="Желает ли пользователь&lt;br&gt;оставить&lt;br&gt;отзыв" style="rhombus;whiteSpace=wrap;html=1;" vertex="1" parent="1">
          <mxGeometry x="2370" y="164.38" width="120" height="110" as="geometry" />
        </mxCell>
        <mxCell id="wnNiQgYEwYsbPakoSUSL-64" value="" style="ellipse;html=1;shape=endState;fillColor=#000000;strokeColor=#000000;" vertex="1" parent="1">
          <mxGeometry x="2410" y="90" width="40" height="40" as="geometry" />
        </mxCell>
        <mxCell id="wnNiQgYEwYsbPakoSUSL-67" value="Пользователь покинул сайт" style="text;html=1;align=center;verticalAlign=middle;resizable=0;points=[];autosize=1;" vertex="1" parent="1">
          <mxGeometry x="2345" y="70" width="170" height="20" as="geometry" />
        </mxCell>
        <mxCell id="wnNiQgYEwYsbPakoSUSL-71" style="edgeStyle=orthogonalEdgeStyle;rounded=0;orthogonalLoop=1;jettySize=auto;html=1;exitX=0.5;exitY=0;exitDx=0;exitDy=0;entryX=1;entryY=0.5;entryDx=0;entryDy=0;startArrow=none;startFill=0;endArrow=classic;endFill=1;" edge="1" parent="1" source="wnNiQgYEwYsbPakoSUSL-68" target="wnNiQgYEwYsbPakoSUSL-64">
          <mxGeometry relative="1" as="geometry" />
        </mxCell>
        <mxCell id="wnNiQgYEwYsbPakoSUSL-68" value="Форма для отзывов" style="whiteSpace=wrap;html=1;rounded=1;" vertex="1" parent="1">
          <mxGeometry x="2550" y="199.07" width="90" height="40.62" as="geometry" />
        </mxCell>
        <mxCell id="wnNiQgYEwYsbPakoSUSL-77" style="edgeStyle=orthogonalEdgeStyle;rounded=0;orthogonalLoop=1;jettySize=auto;html=1;exitX=1;exitY=0.5;exitDx=0;exitDy=0;entryX=0;entryY=0.5;entryDx=0;entryDy=0;startArrow=none;startFill=0;endArrow=classic;endFill=1;" edge="1" parent="1" source="wnNiQgYEwYsbPakoSUSL-73" target="wnNiQgYEwYsbPakoSUSL-64">
          <mxGeometry relative="1" as="geometry" />
        </mxCell>
        <mxCell id="wnNiQgYEwYsbPakoSUSL-78" value="Нет" style="edgeLabel;html=1;align=center;verticalAlign=middle;resizable=0;points=[];" vertex="1" connectable="0" parent="wnNiQgYEwYsbPakoSUSL-77">
          <mxGeometry x="-0.0764" y="-5" relative="1" as="geometry">
            <mxPoint as="offset" />
          </mxGeometry>
        </mxCell>
        <mxCell id="wnNiQgYEwYsbPakoSUSL-79" style="edgeStyle=orthogonalEdgeStyle;rounded=0;orthogonalLoop=1;jettySize=auto;html=1;exitX=0;exitY=0.5;exitDx=0;exitDy=0;entryX=0.5;entryY=0;entryDx=0;entryDy=0;startArrow=none;startFill=0;endArrow=classic;endFill=1;" edge="1" parent="1" source="wnNiQgYEwYsbPakoSUSL-73" target="wnNiQgYEwYsbPakoSUSL-11">
          <mxGeometry relative="1" as="geometry" />
        </mxCell>
        <mxCell id="wnNiQgYEwYsbPakoSUSL-80" value="Да" style="edgeLabel;html=1;align=center;verticalAlign=middle;resizable=0;points=[];" vertex="1" connectable="0" parent="wnNiQgYEwYsbPakoSUSL-79">
          <mxGeometry x="-0.1243" y="-1" relative="1" as="geometry">
            <mxPoint as="offset" />
          </mxGeometry>
        </mxCell>
        <mxCell id="wnNiQgYEwYsbPakoSUSL-73" value="Пользователь&lt;br&gt;желает &lt;br&gt;продолжить&lt;br&gt;&amp;nbsp;оплату" style="rhombus;whiteSpace=wrap;html=1;" vertex="1" parent="1">
          <mxGeometry x="1990" y="40" width="160" height="110" as="geometry" />
        </mxCell>
      </root>
    </mxGraphModel>
  </diagram>
</mxfile>
